<svg xmlns="http://www.w3.org/2000/svg" xml:space="preserve" width="378px" height="425px" version="1.1" viewBox="0 0 378 426">
 <defs>
  <style type="text/css">
    .fil1 { fill:#5F9039; }
    .fil0 { fill:#80542D; }
    .fil2 { fill:#98C341; }
  </style>
 </defs>
 <g>
  <path class="fil0" d="M24.51 420.42l162.23 -184.76c5.1,-5.82 4.57,-14.73 -1.24,-19.89 -5.8,-5.14 -14.66,-4.59 -19.78,1.24l-162.21 184.76c-5.12,5.85 -4.57,14.73 1.23,19.89 5.79,5.17 14.65,4.59 19.77,-1.24l0 0z"/>
  <path class="fil1" d="M297.24 319.57c-86.2,95.67 -168.67,84.1 -231.61,26.74 -62.82,-57.31 -82.41,-138.72 3.84,-234.45 86.14,-95.54 308.41,-111.86 308.41,-111.86 0,0 5.55,223.97 -80.64,319.57l0 0z"/>
  <path class="fil2" d="M66.48 347.1c62.82,56.69 144.99,67.71 230.76,-27.53l0 0c86.19,-95.6 80.64,-319.57 80.64,-319.57l-311.4 347.1z"/>
 </g>
</svg>
